<?xml version="1.0" standalone="no"?>
<!DOCTYPE svg PUBLIC "-//W3C//DTD SVG 1.1//EN" "http://www.w3.org/Graphics/SVG/1.1/DTD/svg11.dtd" >
<svg xmlns="http://www.w3.org/2000/svg">
<metadata>
This is a custom SVG webfont generated by Font Squirrel.
</metadata>
<defs>
<font id="PointersRegular" horiz-adv-x="2093" >
<font-face units-per-em="2048" ascent="1638" descent="-410" />
<missing-glyph horiz-adv-x="1466" />
<glyph unicode=" " horiz-adv-x="1466" d="M0 123q199 201 199 485q0 295 -199 498l1202 -492z" />
<glyph unicode="!" horiz-adv-x="1679" d="M123 467v352l717 717l716 -717v-352l-593 594v-1389h-246v1389z" />
<glyph unicode="&#x22;" horiz-adv-x="1745" d="M246 860l676 676l700 -702l-373 59v-1262h-645v1295zM549 1020l158 29v-1315h307v1315l157 -29l-311 311z" />
<glyph unicode="#" horiz-adv-x="1368" d="M123 602q45 33 89.5 75.5t79.5 83.5t74.5 99.5t73.5 118.5q69 118 124 262.5t89 294.5h62q22 -98 55 -200.5t71.5 -191t84.5 -165.5q71 -125 149.5 -218t169.5 -159l-31 -61q-108 63 -243 98q-80 20 -166 29v-742h-246v742q-86 -9 -166 -29q-139 -35 -239 -98z" />
<glyph unicode="$" horiz-adv-x="1679" d="M123 524v295l717 717l716 -717v-295l-348 121v-563h-737v563z" />
<glyph unicode="%" horiz-adv-x="1884" d="M123 422v295l819 819l819 -819v-295l-450 223v-563h-738v563zM819 369h246v604l-123 170l-123 -170v-604z" />
<glyph unicode="&#x26;" horiz-adv-x="1884" d="M123 166l696 694v-1329h-246v737l-450 -450v348zM123 371v348l819 817l819 -817v-348l-819 817zM1065 -469v1329l696 -694v-348l-450 450v-737h-246z" />
<glyph unicode="'" horiz-adv-x="2107" d="M0 225v645h1294l-65 359l676 -676l-703 -700l60 372h-1262zM102 461h1315l-28 -158l311 311l-311 312l28 -158h-1315v-307z" />
<glyph unicode="(" horiz-adv-x="1679" d="M123 227l512 369v295l-512 -367v295l717 717l716 -717v-295l-512 367v-295l512 -369v-665l-512 368h-409l-512 -368v665zM240 127v-297l395 285v297zM1044 115l396 -285v297l-396 285v-297z" />
<glyph unicode=")" horiz-adv-x="1827" d="M123 735q0 334 231 570q236 231 570 231q331 0 565 -231q233 -236 233 -570q0 -332 -233.5 -565t-564.5 -233q-334 0 -570 233q-231 233 -231 565zM385 575l430 431v-924h217v924l430 -431v314l-538 534l-539 -534v-314z" />
<glyph unicode="*" horiz-adv-x="1679" d="M123 23l512 223v502l-512 -224v295l717 717l716 -717v-295l-512 224v-502l512 -223v-400l-512 223h-409l-512 -223v400z" />
<glyph unicode="+" horiz-adv-x="1618" d="M123 -248l543 1784h41v-1456zM911 80v1456h41l543 -1784z" />
<glyph unicode="," horiz-adv-x="2087" d="M0 358v205h1237q-49 37 -94 82q-136 132 -201 297l137 119q58 -142 178 -264q234 -234 566 -234v-205h-1823z" />
<glyph unicode="-" horiz-adv-x="2128" d="M0 246v737h102v-737h-102zM328 246v737h194v-737h-194zM676 246v737h194v-737h-194zM963 246v737h215l-172 502h294l564 -871l-564 -870h-294l172 502h-215z" />
<glyph unicode="." horiz-adv-x="2128" d="M0 492v245h883l-594 594h295l592 -594h270l-594 594h295l717 -717l-717 -716h-295l594 594h-270l-592 -594h-295l594 594h-883z" />
<glyph unicode="/" horiz-adv-x="1964" d="M0 461v307h1161l-80 346l619 -500l-619 -499l80 346h-1161zM82 850l516 414h434l-516 -414h-434z" />
<glyph unicode="0" horiz-adv-x="1845" d="M0 614q0 334 233 570q234 231 566 231q334 0 569 -231q231 -236 231 -570q0 -331 -231 -565q-235 -233 -569 -233q-332 0 -566 233q-233 234 -233 565zM145 506h924l-430 -430h313l535 538l-535 539h-313l430 -430h-924v-217z" />
<glyph unicode="1" horiz-adv-x="2128" d="M0 492v245h1389l-594 594h352l717 -717l-717 -716h-352l594 594h-1389z" />
<glyph unicode="2" horiz-adv-x="1923" d="M0 410v409h870l-223 512h295l717 -717l-717 -716h-295l223 512h-870z" />
<glyph unicode="3" horiz-adv-x="1874" d="M0 492v245h741q-8 86 -28 166q-34 135 -99 240l62 31q129 -179 377 -318q238 -140 557 -213v-61q-329 -77 -557 -211q-121 -69 -217 -150t-160 -170l-62 31q65 113 99 244q20 80 28 166h-741z" />
<glyph unicode="4" horiz-adv-x="1718" d="M0 246v737h563l-121 348h295l717 -717l-717 -716h-295l121 348h-563z" />
<glyph unicode="5" horiz-adv-x="1718" d="M0 246v737h563l-223 451h295l819 -820l-819 -819h-295l223 451h-563zM287 492h604l170 122l-170 123h-604v-245z" />
<glyph unicode="6" horiz-adv-x="1718" d="M0 246v246h1333l-698 -697h-295l223 451h-563zM0 737v246h563l-223 451h295l694 -697h-1329z" />
<glyph unicode="7" horiz-adv-x="2269" d="M0 246v246h1329l-694 -697h-348l450 451h-737zM0 737v246h737l-450 451h348l694 -697h-1329zM840 -205l817 819l-817 820h348l817 -820l-817 -819h-348z" />
<glyph unicode="8" horiz-adv-x="2177" d="M0 -102l223 512v409l-223 512h399l224 -512h501l-223 512h295l717 -717l-717 -716h-295l223 512h-501l-224 -512h-399z" />
<glyph unicode="9" horiz-adv-x="2238" d="M0 -102l369 512v409l-369 512h666l368 -512h295l-366 512h294l717 -717l-717 -716h-294l366 512h-295l-368 -512h-666zM268 14h297l285 396h-297zM268 1214l285 -395h297l-285 395h-297z" />
<glyph unicode=":" horiz-adv-x="1475" d="M123 717v205l614 614l615 -614v-205l-359 65v-1089h-512v1089zM426 1081l158 29v-1110h307v1110l158 -29l-312 312z" />
<glyph unicode=";" horiz-adv-x="2107" d="M0 358v512h1090l-66 359h205l614 -615l-614 -614h-205l66 358h-1090zM307 461h1110l-28 -158l311 311l-311 312l28 -158h-1110v-307z" />
<glyph unicode="&#x3c;" horiz-adv-x="948" d="M123 793q142 56 264 178q234 233 234 565h204v-1823h-204v1237q-33 -44 -82 -94q-132 -136 -297 -201z" />
<glyph unicode="=" horiz-adv-x="2048" d="M0 -72l328 584h1456v-41zM0 1300l1784 -542v-41h-1456z" />
<glyph unicode="&#x3e;" horiz-adv-x="1679" d="M123 -39v295l594 592v270l-594 -594v295l717 717l716 -717v-295l-593 594v-270l593 -592v-295l-593 594v-883h-246v883z" />
<glyph unicode="?" horiz-adv-x="1395" d="M123 434v434l414 -516v-434zM272 918l500 618l500 -618l-346 79v-1161h-308v1161z" />
<glyph unicode="@" horiz-adv-x="1679" d="M123 524v295l717 717l716 -717v-295l-512 224v-871h-409v871z" />
<glyph unicode="A" horiz-adv-x="1229" d="M123 334l491 1202l492 -1202q-201 198 -485 198q-295 0 -498 -198z" />
<glyph unicode="B" horiz-adv-x="1536" d="M123 334l645 1202l645 -1202l-645 389z" />
<glyph unicode="C" horiz-adv-x="1741" d="M123 291q237 172 424 502q185 317 282 743h82q99 -427 283 -743q187 -330 424 -502l-41 -82q-140 83 -324 131q-180 47 -385 47q-204 0 -385 -47q-183 -47 -319 -131z" />
<glyph unicode="D" horiz-adv-x="1331" d="M123 -248l543 1784l542 -1784l-542 328z" />
<glyph unicode="E" d="M123 289l924 1247l923 -1247h-1847zM676 412h741l-370 499z" />
<glyph unicode="F" horiz-adv-x="1655" d="M123 190l102 195h1205l102 -195h-1409zM311 551l516 985l516 -985h-1032z" />
<glyph unicode="G" d="M123 289l924 1247l923 -1247h-1847zM371 416h1351l-675 911zM676 578l371 499l370 -499h-741z" />
<glyph unicode="H" d="M123 289l924 1247l923 -1247h-239l-684 923l-685 -923h-239zM705 289l342 463l342 -463h-684z" />
<glyph unicode="I" d="M123 289l924 1247l923 -1247h-1847zM500 485h448v607zM1145 485h448l-448 609v-609z" />
<glyph unicode="J" d="M123 289l604 815l604 -815h-1208zM870 1298l177 238l923 -1247h-352z" />
<glyph unicode="K" horiz-adv-x="1847" d="M123 733l801 803l800 -803l-112 -112l-688 690l-688 -690zM371 485l553 553l555 -553l-555 -553z" />
<glyph unicode="L" horiz-adv-x="1847" d="M123 733l801 803l800 -803l-112 -112l-688 690l-688 -690zM371 485l553 553l553 -553l-113 -112l-440 440l-441 -440zM618 238l306 299l305 -299l-305 -306z" />
<glyph unicode="M" horiz-adv-x="1847" d="M123 733l801 803l800 -803l-112 -112l-688 690l-688 -690zM371 485l430 428v-663h246v665l432 -430l-555 -553z" />
<glyph unicode="N" horiz-adv-x="1847" d="M123 733l801 803l800 -803l-112 -112l-688 690l-688 -690zM371 -68v553l553 553l553 -553v-553h-1106z" />
<glyph unicode="O" horiz-adv-x="1827" d="M123 735q0 334 231 570q236 231 570 231q331 0 565 -231q233 -236 233 -570q0 -186 -67 -329l-731 825l-734 -823q-67 149 -67 327zM350 174l574 647l573 -647q-237 -237 -573 -237q-168 0 -312 60.5t-262 176.5z" />
<glyph unicode="P" horiz-adv-x="1782" d="M123 770q0 320 225 547q95 94 203 148.5t229 70.5q0 -155 -23.5 -300t-72 -271.5t-123.5 -237.5q-154 -233 -358 -303q-80 158 -80 346zM348 227q110 45 204.5 135t180.5 222q94 143 156 313q61 -175 153 -313q180 -274 394 -357q-224 -223 -543 -223q-320 0 -545 223z M993 1536q256 -33 443 -219q223 -227 223 -547q0 -190 -80 -350q-207 67 -365 307q-221 331 -221 809z" />
<glyph unicode="Q" horiz-adv-x="1782" d="M123 770q0 320 225 547q95 94 203 148.5t229 70.5q0 -155 -23.5 -300t-72 -271.5t-123.5 -237.5q-154 -233 -358 -303q-80 158 -80 346zM348 227q225 111 545 111q319 0 543 -111q-224 -223 -543 -223q-320 0 -545 223zM993 1536q256 -33 443 -219q223 -227 223 -547 q0 -190 -80 -350q-207 67 -365 307q-221 331 -221 809z" />
<glyph unicode="R" horiz-adv-x="1782" d="M123 0v1536h1536v-1536h-1536zM379 463l409 817h-409v-817zM571 256h639l-319 737zM993 1280l410 -813v813h-410z" />
<glyph unicode="S" horiz-adv-x="1782" d="M123 0v1536h1536v-1536h-1536zM379 256h1024l-512 1024z" />
<glyph unicode="T" horiz-adv-x="1638" d="M123 -178l696 997l697 -997h-1393zM123 539l696 997l697 -997h-246l-451 690l-450 -690h-246z" />
<glyph unicode="U" horiz-adv-x="1638" d="M123 -178v717l696 997l697 -997v-717h-246l-451 690l-450 -690h-246zM313 94l506 725l506 -725v361l-506 774l-506 -774v-361z" />
<glyph unicode="V" horiz-adv-x="1638" d="M123 -178l696 997l697 -997h-246l-451 690l-450 -690h-246zM123 539l696 997l697 -997h-246l-451 690l-450 -690h-246z" />
<glyph unicode="W" horiz-adv-x="1952" d="M123 539l592 997l262 -440l260 440l592 -997h-209l-383 690l-164 -297l234 -393h-662l234 393l-164 297l-383 -690h-209z" />
<glyph unicode="X" horiz-adv-x="1968" d="M123 279v245h737v600l-368 -368v270l491 510l492 -453v-303l-369 344v-600h248q103 0 189 -35t159 -108q143 -145 143 -350t-143 -348.5t-348 -143.5t-350 144q-144 143 -144 348v248h-737zM1106 31q0 -103 72 -174q73 -72 176 -72q102 0 173.5 71.5t71.5 174.5 q0 102 -71 176q-72 72 -174 72h-248v-248z" />
<glyph unicode="Y" horiz-adv-x="1864" d="M123 -332q89 66 165 147.5t141.5 176.5t123 208t104.5 238q172 441 172 1024v74h205v-74q0 -131 10.5 -266.5t33 -271t54.5 -256t74 -230.5q98 -256 232 -450.5t303 -319.5l-195 -123q-127 111 -245 270t-212.5 351.5t-156.5 398.5q-63 -209 -157 -400t-210 -348 t-248 -272z" />
<glyph unicode="Z" horiz-adv-x="1884" d="M123 -481v1376l1024 -860v1089l-369 -368v270l492 510l491 -453v-303l-368 344v-1605l-1024 819v-819h-246z" />
<glyph unicode="[" horiz-adv-x="2189" d="M0 -225v1679h1905v-1679h-1905zM123 410h870l-223 -512h295l717 716l-717 717h-295l223 -512h-870v-409z" />
<glyph unicode="\" horiz-adv-x="1964" d="M0 461v819h307v-512h854l-137 461l676 -615l-676 -614l137 461h-1161z" />
<glyph unicode="]" horiz-adv-x="1978" d="M0 -225v1679h1905v-1679h-1905zM123 -82l997 696l-997 697v-246l690 -451l-690 -450v-246zM840 -82l997 696l-997 697v-246l690 -451l-690 -450v-246z" />
<glyph unicode="^" horiz-adv-x="1884" d="M123 547v295l696 694v-1329h-246v563zM1065 207v1333l696 -698v-295l-450 223v-563h-246z" />
<glyph unicode="_" horiz-adv-x="1987" d="M123 678v295l870 563l871 -563v-295l-502 172v-215h-737v215zM625 0v195h737v-195h-737zM625 -225h737v-103h-737v103zM625 348v195h737v-195h-737z" />
<glyph unicode="`" horiz-adv-x="1229" d="M0 492v245h1229v-245h-1229z" />
<glyph unicode="b" horiz-adv-x="1466" d="M0 -31l389 645l-389 646l1202 -646z" />
<glyph unicode="c" horiz-adv-x="1591" d="M0 -92q83 139 131 323q47 181 47 385q0 205 -47 385q-47 185 -131 320l82 41q90 -122 211.5 -224t290.5 -200q316 -184 743 -283v-82q-426 -97 -743 -282q-331 -189 -502 -424z" />
<glyph unicode="d" horiz-adv-x="2048" d="M0 72l328 542l-328 543l1784 -543z" />
<glyph unicode="e" horiz-adv-x="1511" d="M0 -311v1847l1247 -924zM123 242l500 370l-500 371v-741z" />
<glyph unicode="f" horiz-adv-x="1610" d="M0 -90v1409l195 -102v-1205zM360 98v1032l986 -516z" />
<glyph unicode="g" horiz-adv-x="1511" d="M0 -311v1847l1247 -924zM127 -63l911 675l-911 676v-1351zM289 242v741l499 -371z" />
<glyph unicode="h" horiz-adv-x="1511" d="M0 -70l924 684l-924 684v240l1247 -924l-1247 -923v239zM0 272v684l463 -342z" />
<glyph unicode="i" horiz-adv-x="1511" d="M0 -309v1847l1247 -924zM197 68l608 448h-608v-448zM197 713h606l-606 448v-448z" />
<glyph unicode="j" horiz-adv-x="1511" d="M0 43l1010 748l237 -177l-1247 -923v352zM0 330v1208l815 -604z" />
<glyph unicode="k" horiz-adv-x="1872" d="M0 614l553 553l553 -553l-553 -555zM688 -74l690 688l-690 689l113 112l803 -801l-803 -800z" />
<glyph unicode="l" horiz-adv-x="1872" d="M0 614l305 306l299 -306l-299 -305zM440 174l441 440l-441 441l113 112l553 -553l-553 -553zM688 -74l690 688l-690 689l113 112l803 -801l-803 -800z" />
<glyph unicode="m" horiz-adv-x="1872" d="M0 614l553 553l428 -430h-664v-245h666l-430 -433zM688 -74l690 688l-690 689l113 112l803 -801l-803 -800z" />
<glyph unicode="n" horiz-adv-x="1872" d="M0 61v1106h553l553 -553l-553 -553h-553zM688 -74l690 688l-690 689l113 112l803 -801l-803 -800z" />
<glyph unicode="o" horiz-adv-x="1845" d="M0 614q0 166 60.5 310.5t177.5 263.5l647 -574l-647 -573q-238 238 -238 573zM469 -117l825 731l-823 734q150 67 328 67q334 0 569 -231q231 -236 231 -570q0 -331 -231 -565q-235 -233 -569 -233q-93 0 -174 16t-156 51z" />
<glyph unicode="p" horiz-adv-x="1802" d="M0 614q0 320 223 545q30 -74 79 -139.5t119 -127t159 -118.5q144 -92 313 -156q-170 -58 -313 -153q-274 -179 -357 -393q-223 223 -223 542zM416 -72q67 207 307 365q331 221 809 221q-33 -256 -219 -442q-228 -224 -547 -224q-190 0 -350 80zM420 1305q158 79 346 79 q319 0 547 -225q60 -61 105 -129.5t73.5 -143t40.5 -159.5q-115 0 -228.5 14t-212 40t-193.5 69t-175 96q-234 157 -303 359z" />
<glyph unicode="q" horiz-adv-x="1802" d="M0 614q0 320 223 545q111 -225 111 -545q0 -319 -111 -542q-223 223 -223 542zM416 -72q67 207 307 365q331 221 809 221q-33 -256 -219 -442q-228 -224 -547 -224q-190 0 -350 80zM420 1305q158 79 346 79q319 0 547 -225q60 -61 105 -129.5t73.5 -143t40.5 -159.5 q-115 0 -228.5 14t-212 40t-193.5 69t-175 96q-234 157 -303 359z" />
<glyph unicode="r" horiz-adv-x="1800" d="M0 -154v1536h1536v-1536h-1536zM256 295l737 319l-737 320v-639zM463 1126l817 -409v409h-817zM467 102h813v410z" />
<glyph unicode="s" horiz-adv-x="1800" d="M0 -154v1536h1536v-1536h-1536zM256 102l1024 512l-1024 512v-1024z" />
<glyph unicode="t" horiz-adv-x="1978" d="M0 -82v1393l997 -697zM717 -82v246l690 450l-690 451v246l997 -697z" />
<glyph unicode="u" horiz-adv-x="1978" d="M0 -82v246l690 450l-690 451v246h717l997 -697l-997 -696h-717zM272 109h361l774 505l-774 506h-361l725 -506z" />
<glyph unicode="v" horiz-adv-x="1978" d="M0 -82v246l690 450l-690 451v246l997 -697zM717 -82v246l690 450l-690 451v246l997 -697z" />
<glyph unicode="w" horiz-adv-x="1262" d="M0 -35l690 383l-297 164l-393 -233v661l393 -233l297 163l-690 383v209l997 -592l-440 -262l440 -260l-997 -592v209z" />
<glyph unicode="x" horiz-adv-x="2261" d="M0 244q0 205 143 350q144 143 349 143h247v738h246v-738h600l-368 369h270l510 -492l-453 -491h-303l344 369h-600v-248q0 -103 -35 -189t-108 -159q-146 -144 -350 -144q-205 0 -349 144q-143 143 -143 348zM246 244q0 -103 71 -174q72 -72 175 -72q102 0 176 72 q71 71 71 174v248h-247q-101 0 -175 -72q-71 -74 -71 -176z" />
<glyph unicode="y" horiz-adv-x="2255" d="M0 0q90 102 197 189.5t235 165.5t281 145.5t307 113.5q-209 63 -401.5 158t-348.5 210.5t-270 246.5l123 194q67 -89 147 -163.5t177.5 -141.5t204 -121.5t241.5 -107.5q110 -42 231.5 -74t255 -54.5t269 -33t268.5 -10.5h74v-205h-74q-150 0 -285 -11t-257.5 -31.5 t-249 -54.5t-232.5 -75q-130 -49 -240.5 -105.5t-206.5 -122.5t-176.5 -142t-146.5 -165z" />
<glyph unicode="z" horiz-adv-x="2281" d="M0 164l819 1024h-819v246h1376l-860 -1024h1090l-369 368h270l510 -491l-452 -492h-303l344 369h-1606z" />
<glyph unicode="{" horiz-adv-x="1925" d="M123 -369v1905h1679v-1905h-1679zM246 401l512 224v-871h409v871l512 -224v295l-716 717l-717 -717v-295z" />
<glyph unicode="|" horiz-adv-x="1526" d="M123 143h512v854l-461 -137l614 676l615 -676l-461 137v-1161h-819v307z" />
<glyph unicode="}" horiz-adv-x="1925" d="M123 -369v1905h1679v-1905h-1679zM266 -246h246l451 690l450 -690h246l-696 998zM266 471h246l451 690l450 -690h246l-696 997z" />
<glyph unicode="~" horiz-adv-x="1229" d="M0 410v409h1229v-409h-1229z" />
<glyph unicode="&#xa1;" horiz-adv-x="2128" d="M264 614l717 717h352l-594 -594h1389v-245h-1389l594 -594h-352z" />
<glyph unicode="&#xa2;" horiz-adv-x="1718" d="M264 614l717 717h295l-121 -348h563v-737h-563l121 -348h-295z" />
<glyph unicode="&#xa3;" horiz-adv-x="1874" d="M264 582v61q319 73 557 213q248 139 377 318l62 -31q-64 -105 -99 -240q-20 -80 -28 -166h741v-245h-741q8 -86 28 -166q34 -131 99 -244l-62 -31q-64 89 -160 170t-217 150q-228 134 -557 211z" />
<glyph unicode="&#xa4;" horiz-adv-x="1679" d="M123 307v295l512 -223v870h409v-870l512 223v-295l-716 -717z" />
<glyph unicode="&#xa5;" horiz-adv-x="2255" d="M264 512v205h74q583 0 1024 172q130 50 239.5 106t205.5 122t177.5 142.5t147.5 163.5l123 -194q-115 -132 -272 -247.5t-348 -210t-400 -157.5q151 -45 303.5 -111.5t283 -146t239.5 -169t194 -187.5l-123 -195q-65 87 -146.5 164.5t-176.5 143t-208 123t-239 104.5 q-441 172 -1024 172h-74z" />
<glyph unicode="&#xa7;" horiz-adv-x="1718" d="M385 492h1333v-246h-563l223 -451h-295zM389 737l694 697h295l-223 -451h563v-246h-1329z" />
<glyph unicode="&#xa8;" horiz-adv-x="1638" d="M123 588v717h246l450 -691l451 691h246v-717l-697 -998zM313 672l506 -774l506 774v360l-506 -725l-506 725v-360z" />
<glyph unicode="&#xa9;" horiz-adv-x="1511" d="M264 612l1247 924v-1847zM473 612l911 -675v1351zM723 612l500 371v-741z" />
<glyph unicode="&#xaa;" horiz-adv-x="2238" d="M264 614l717 717h295l-367 -512h295l369 512h665l-368 -512v-409l368 -512h-665l-369 512h-295l367 -512h-295zM1389 410l284 -396h297l-284 396h-297zM1389 819h297l284 395h-297z" />
<glyph unicode="&#xab;" horiz-adv-x="1964" d="M264 614l676 615l-137 -461h854v512h307v-819h-1161l137 -461z" />
<glyph unicode="&#xac;" horiz-adv-x="1872" d="M268 614l803 801l113 -112l-690 -689l690 -688l-113 -112zM766 614l553 553l113 -112l-441 -441l441 -440l-113 -113zM1268 614l299 306l305 -306l-305 -305z" />
<glyph unicode="&#xad;" horiz-adv-x="2128" d="M0 246v737h102v-737h-102zM328 246v737h194v-737h-194zM676 246v737h194v-737h-194zM963 246v737h215l-172 502h294l564 -871l-564 -870h-294l172 502h-215z" />
<glyph unicode="&#xae;" horiz-adv-x="1800" d="M264 -154v1536h1536v-1536h-1536zM520 102h813l-813 410v-410zM520 717l817 409h-817v-409zM807 614l737 -319v639z" />
<glyph unicode="&#xaf;" horiz-adv-x="948" d="M123 334l119 137q165 -65 297 -201q49 -50 82 -94v1237h204v-1823h-204q0 332 -234 566q-119 119 -264 178z" />
<glyph unicode="&#xb0;" horiz-adv-x="1679" d="M123 307v295l512 -223v502l-512 223v399l512 -223h409l512 223v-399l-512 -223v-502l512 223v-295l-716 -717z" />
<glyph unicode="&#xb1;" horiz-adv-x="1618" d="M123 1374l584 -327v-1457h-41zM911 -410v1457l584 327l-543 -1784h-41z" />
<glyph unicode="&#xb2;" horiz-adv-x="1923" d="M0 410v409h870l-223 512h295l717 -717l-717 -716h-295l223 512h-870z" />
<glyph unicode="&#xb3;" horiz-adv-x="1874" d="M0 492v245h741q-8 86 -28 166q-34 135 -99 240l62 31q129 -179 377 -318q238 -140 557 -213v-61q-329 -77 -557 -211q-121 -69 -217 -150t-160 -170l-62 31q65 113 99 244q20 80 28 166h-741z" />
<glyph unicode="&#xb4;" d="M123 838h1847l-923 -1248zM676 715l371 -500l370 500h-741z" />
<glyph unicode="&#xb5;" horiz-adv-x="1872" d="M268 614l803 801l113 -112l-690 -689l690 -688l-113 -112zM889 492h665v245h-663l428 430l553 -553l-553 -555z" />
<glyph unicode="&#xb6;" horiz-adv-x="2269" d="M264 614l817 820h349l-818 -820l818 -819h-349zM940 492h1329v-246h-737l450 -451h-348zM940 737l694 697h348l-450 -451h737v-246h-1329z" />
<glyph unicode="&#xb7;" horiz-adv-x="1679" d="M123 279v294l512 -366v295l-512 368v666l512 -369h409l512 369v-666l-512 -368v-295l512 366v-294l-716 -717zM240 971l395 -285v297l-395 285v-297zM1044 686l396 285v297l-396 -285v-297z" />
<glyph unicode="&#xb8;" horiz-adv-x="1884" d="M123 231v1377h246v-820l1024 820v-1606l368 344v-303l-491 -453l-492 510v271l369 -369v1090z" />
<glyph unicode="&#xb9;" horiz-adv-x="2128" d="M0 492v245h1389l-594 594h352l717 -717l-717 -716h-352l594 594h-1389z" />
<glyph unicode="&#xba;" horiz-adv-x="1845" d="M264 614q0 334 232 570q235 231 569 231q332 0 565 -231q234 -236 234 -570q0 -331 -234 -565q-233 -233 -565 -233q-334 0 -569 233q-232 234 -232 565zM377 614l534 -538h314l-430 430h923v217h-923l430 430h-314z" />
<glyph unicode="&#xbb;" horiz-adv-x="1526" d="M123 983v307h819v-1161l461 137l-615 -676l-614 676l461 -137v854h-512z" />
<glyph unicode="&#xbc;" horiz-adv-x="5525" d="M3807 246v737h563l-121 348h295l717 -717l-717 -716h-295l121 348h-563zM2251 307v352l594 -593v1388h246v-1388l593 593v-352l-716 -717zM0 492v245h1389l-594 594h352l717 -717l-717 -716h-352l594 594h-1389z" />
<glyph unicode="&#xbd;" horiz-adv-x="5730" d="M3807 410v409h870l-223 512h295l717 -717l-717 -716h-295l223 512h-870zM2251 307v352l594 -593v1388h246v-1388l593 593v-352l-716 -717zM0 492v245h1389l-594 594h352l717 -717l-717 -716h-352l594 594h-1389z" />
<glyph unicode="&#xbe;" horiz-adv-x="5271" d="M3553 246v737h563l-121 348h295l717 -717l-717 -716h-295l121 348h-563zM1997 307v352l594 -593v1388h246v-1388l593 593v-352l-716 -717zM0 492v245h741q-8 86 -28 166q-34 135 -99 240l62 31q129 -179 377 -318q238 -140 557 -213v-61q-329 -77 -557 -211 q-121 -69 -217 -150t-160 -170l-62 31q65 113 99 244q20 80 28 166h-741z" />
<glyph unicode="&#xbf;" horiz-adv-x="1395" d="M123 258v434l414 516v-434zM272 209l346 -80v1161h308v-1161l346 80l-500 -619z" />
<glyph unicode="&#xc0;" horiz-adv-x="1229" d="M91 1658v245h1229v-245h-1229zM123 334l491 1202l492 -1202q-201 198 -485 198q-295 0 -498 -198z" />
<glyph unicode="&#xc1;" horiz-adv-x="1864" d="M123 1458l194 123q131 -114 247 -270t210.5 -348.5t157.5 -401.5q47 154 112.5 303.5t144.5 280.5t168.5 240t188.5 196l195 -123q-169 -125 -303 -319t-232 -451q-41 -107 -73.5 -230t-55 -255.5t-33 -269t-10.5 -269.5v-74h-205v74q0 583 -172 1024q-47 126 -104.5 239 t-122.5 207t-142.5 176.5t-164.5 147.5z" />
<glyph unicode="&#xc2;" horiz-adv-x="1847" d="M123 393l113 113l688 -690l688 690l112 -113l-800 -803zM371 641l553 553l555 -553l-432 -430v666h-246v-664z" />
<glyph unicode="&#xc3;" horiz-adv-x="1229" d="M672 2461l113 113l688 -690l688 690l112 -113l-800 -803zM920 2709v553h1106v-553l-553 -553zM123 334l491 1202l492 -1202q-201 198 -485 198q-295 0 -498 -198z" />
<glyph unicode="&#xc4;" horiz-adv-x="1229" d="M993 2656v717h246l450 -691l451 691h246v-717l-697 -998zM1183 2740l506 -774l506 774v360l-506 -725l-506 725v-360zM123 334l491 1202l492 -1202q-201 198 -485 198q-295 0 -498 -198z" />
<glyph unicode="&#xc5;" horiz-adv-x="1229" d="M123 793q203 -199 498 -199q284 0 485 199l-492 -1203z" />
<glyph unicode="&#xc6;" horiz-adv-x="1745" d="M246 266l358 -65v1294h645v-1262l373 60l-700 -703zM549 106l311 -311l311 311l-157 -28v1315h-307v-1315z" />
<glyph unicode="&#xc7;" horiz-adv-x="1741" d="M123 836l41 82q134 -85 319 -132q181 -47 385 -47q205 0 385 47q186 48 324 132l41 -82q-80 -58 -152 -131.5t-139.5 -165.5t-132.5 -205q-184 -315 -283 -744h-82q-97 427 -282 744q-189 331 -424 502z" />
<glyph unicode="&#xc8;" d="M524 1658v245h1229v-245h-1229zM123 289l924 1247l923 -1247h-1847zM676 412h741l-370 499z" />
<glyph unicode="&#xc9;" d="M214 2906h1847l-923 -1248zM767 2783l371 -500l370 500h-741zM123 289l924 1247l923 -1247h-1847zM676 412h741l-370 499z" />
<glyph unicode="&#xca;" d="M1139 2906h1847l-923 -1248zM1516 2709l448 -606v606h-448zM2161 2101l448 608h-448v-608zM123 289l924 1247l923 -1247h-1847zM676 412h741l-370 499z" />
<glyph unicode="&#xcb;" d="M1426 2656v717h246l450 -691l451 691h246v-717l-697 -998zM1616 2740l506 -774l506 774v360l-506 -725l-506 725v-360zM123 289l924 1247l923 -1247h-1847zM676 412h741l-370 499z" />
<glyph unicode="&#xcc;" d="M524 1658v245h1229v-245h-1229zM123 289l924 1247l923 -1247h-1847zM500 485h448v607zM1145 485h448l-448 609v-609z" />
<glyph unicode="&#xcd;" horiz-adv-x="1782" d="M123 -410v1536h1536v-1536h-1536zM379 870l512 -1024l512 1024h-1024z" />
<glyph unicode="&#xce;" horiz-adv-x="1331" d="M123 1374l543 -327l542 327l-542 -1784z" />
<glyph unicode="&#xcf;" horiz-adv-x="1655" d="M123 936h1409l-102 -195h-1205zM311 575h1032l-516 -985z" />
<glyph unicode="&#xd1;" horiz-adv-x="1847" d="M982 2461l113 113l688 -690l688 690l112 -113l-800 -803zM1230 2709v553h1106v-553l-553 -553zM123 733l801 803l800 -803l-112 -112l-688 690l-688 -690zM371 -68v553l553 553l553 -553v-553h-1106z" />
<glyph unicode="&#xd2;" horiz-adv-x="1847" d="M123 393l113 113l688 -690l688 690l112 -113l-800 -803zM371 641l112 113l441 -441l440 441l113 -113l-553 -553zM618 889l306 305l305 -305l-305 -299z" />
<glyph unicode="&#xd3;" d="M123 838h239l685 -924l684 924h239l-923 -1248zM705 838h684l-342 -463z" />
<glyph unicode="&#xd4;" d="M123 838h1208l-604 -815zM870 -172l748 1010h352l-923 -1248z" />
<glyph unicode="&#xd5;" horiz-adv-x="1827" d="M982 2461l113 113l688 -690l688 690l112 -113l-800 -803zM1230 2709v553h1106v-553l-553 -553zM123 735q0 334 231 570q236 231 570 231q331 0 565 -231q233 -236 233 -570q0 -186 -67 -329l-731 825l-734 -823q-67 149 -67 327zM350 174l574 647l573 -647 q-237 -237 -573 -237q-168 0 -312 60.5t-262 176.5z" />
<glyph unicode="&#xd6;" horiz-adv-x="1827" d="M1303 2656v717h246l450 -691l451 691h246v-717l-697 -998zM1493 2740l506 -774l506 774v360l-506 -725l-506 725v-360zM123 735q0 334 231 570q236 231 570 231q331 0 565 -231q233 -236 233 -570q0 -186 -67 -329l-731 825l-734 -823q-67 149 -67 327zM350 174l574 647 l573 -647q-237 -237 -573 -237q-168 0 -312 60.5t-262 176.5z" />
<glyph unicode="&#xd8;" horiz-adv-x="1827" d="M123 391q0 178 67 328l734 -823l731 825q34 -70 50.5 -153.5t16.5 -176.5q0 -334 -233 -569q-234 -232 -565 -232q-334 0 -570 232q-231 235 -231 569zM350 952q74 74 167 129t194 82t213 27q335 0 573 -238l-573 -647z" />
<glyph unicode="&#xd9;" horiz-adv-x="1638" d="M296 1658v245h1229v-245h-1229zM123 -178v717l696 997l697 -997v-717h-246l-451 690l-450 -690h-246zM313 94l506 725l506 -725v361l-506 774l-506 -774v-361z" />
<glyph unicode="&#xda;" horiz-adv-x="1475" d="M123 205v205l358 -66v1090h512v-1090l359 66v-205l-615 -615zM426 45l311 -311l312 311l-158 -29v1110h-307v-1110z" />
<glyph unicode="&#xdb;" horiz-adv-x="1638" d="M911 2906h1847l-923 -1248zM1288 2709l448 -606v606h-448zM1933 2101l448 608h-448v-608zM123 -178v717l696 997l697 -997v-717h-246l-451 690l-450 -690h-246zM313 94l506 725l506 -725v361l-506 774l-506 -774v-361z" />
<glyph unicode="&#xdc;" horiz-adv-x="1638" d="M1198 2656v717h246l450 -691l451 691h246v-717l-697 -998zM1388 2740l506 -774l506 774v360l-506 -725l-506 725v-360zM123 -178v717l696 997l697 -997v-717h-246l-451 690l-450 -690h-246zM313 94l506 725l506 -725v361l-506 774l-506 -774v-361z" />
<glyph unicode="&#xdd;" horiz-adv-x="1864" d="M99 2906h1847l-923 -1248zM652 2783l371 -500l370 500h-741zM123 -332q89 66 165 147.5t141.5 176.5t123 208t104.5 238q172 441 172 1024v74h205v-74q0 -131 10.5 -266.5t33 -271t54.5 -256t74 -230.5q98 -256 232 -450.5t303 -319.5l-195 -123q-127 111 -245 270 t-212.5 351.5t-156.5 398.5q-63 -209 -157 -400t-210 -348t-248 -272z" />
<glyph unicode="&#xdf;" horiz-adv-x="1800" d="M264 -154v1536h1536v-1536h-1536zM520 614l1024 -512v1024z" />
<glyph unicode="&#xe5;" horiz-adv-x="1466" d="M264 614l1202 492q-198 -203 -198 -498q0 -284 198 -485z" />
<glyph unicode="&#xe6;" horiz-adv-x="2107" d="M203 553l676 676l-66 -359h1294v-645h-1261l59 -372zM408 614l311 -311l-29 158h1315v307h-1315l29 158z" />
<glyph unicode="&#xe7;" horiz-adv-x="1591" d="M264 573v82q429 99 744 283q113 65 205 132.5t165.5 140.5t130.5 151l82 -41q-84 -135 -131 -320q-47 -180 -47 -385q0 -204 47 -385q48 -184 131 -323l-82 -41q-169 235 -501 424q-316 184 -744 282z" />
<glyph unicode="&#xe8;" horiz-adv-x="10" />
<glyph unicode="&#xe9;" horiz-adv-x="1511" d="M264 612l1247 924v-1847zM889 612l500 -370v741z" />
<glyph unicode="&#xea;" horiz-adv-x="1511" d="M92 2906h1847l-923 -1248zM469 2709l448 -606v606h-448zM1114 2101l448 608h-448v-608zM0 -311v1847l1247 -924zM123 242l500 370l-500 371v-741z" />
<glyph unicode="&#xeb;" horiz-adv-x="1511" d="M379 2656v717h246l450 -691l451 691h246v-717l-697 -998zM569 2740l506 -774l506 774v360l-506 -725l-506 725v-360zM0 -311v1847l1247 -924zM123 242l500 370l-500 371v-741z" />
<glyph unicode="&#xec;" horiz-adv-x="1536" d="M706 1537v245h1229v-245h-1229zM123 793l645 -390l645 390l-645 -1203z" />
<glyph unicode="&#xed;" horiz-adv-x="1536" d="M396 2785h1847l-923 -1248zM949 2662l371 -500l370 500h-741zM123 793l645 -390l645 390l-645 -1203z" />
<glyph unicode="&#xee;" horiz-adv-x="1511" d="M264 614l1247 924v-1847zM707 516l608 -448v448h-608zM709 713h606v448z" />
<glyph unicode="&#xef;" horiz-adv-x="1536" d="M1607 2535v717h246l450 -691l451 691h246v-717l-697 -998zM1797 2619l506 -774l506 774v360l-506 -725l-506 725v-360zM123 793l645 -390l645 390l-645 -1203z" />
<glyph unicode="&#xf1;" horiz-adv-x="1872" d="M268 614l803 801l113 -112l-690 -689l690 -688l-113 -112zM766 614l553 553h553v-1106h-553z" />
<glyph unicode="&#xf2;" horiz-adv-x="1845" d="M276 1537v245h1229v-245h-1229zM0 614q0 166 60.5 310.5t177.5 263.5l647 -574l-647 -573q-238 238 -238 573zM469 -117l825 731l-823 734q150 67 328 67q334 0 569 -231q231 -236 231 -570q0 -331 -231 -565q-235 -233 -569 -233q-93 0 -174 16t-156 51z" />
<glyph unicode="&#xf3;" horiz-adv-x="1845" d="M-34 2785h1847l-923 -1248zM519 2662l371 -500l370 500h-741zM0 614q0 166 60.5 310.5t177.5 263.5l647 -574l-647 -573q-238 238 -238 573zM469 -117l825 731l-823 734q150 67 328 67q334 0 569 -231q231 -236 231 -570q0 -331 -231 -565q-235 -233 -569 -233 q-93 0 -174 16t-156 51z" />
<glyph unicode="&#xf4;" horiz-adv-x="1845" d="M891 2785h1847l-923 -1248zM1268 2588l448 -606v606h-448zM1913 1980l448 608h-448v-608zM0 614q0 166 60.5 310.5t177.5 263.5l647 -574l-647 -573q-238 238 -238 573zM469 -117l825 731l-823 734q150 67 328 67q334 0 569 -231q231 -236 231 -570q0 -331 -231 -565 q-235 -233 -569 -233q-93 0 -174 16t-156 51z" />
<glyph unicode="&#xf5;" horiz-adv-x="1845" d="M857 2340l113 113l688 -690l688 690l112 -113l-800 -803zM1105 2588v553h1106v-553l-553 -553zM0 614q0 166 60.5 310.5t177.5 263.5l647 -574l-647 -573q-238 238 -238 573zM469 -117l825 731l-823 734q150 67 328 67q334 0 569 -231q231 -236 231 -570 q0 -331 -231 -565q-235 -233 -569 -233q-93 0 -174 16t-156 51z" />
<glyph unicode="&#xf6;" horiz-adv-x="1845" d="M1178 2535v717h246l450 -691l451 691h246v-717l-697 -998zM1368 2619l506 -774l506 774v360l-506 -725l-506 725v-360zM0 614q0 166 60.5 310.5t177.5 263.5l647 -574l-647 -573q-238 238 -238 573zM469 -117l825 731l-823 734q150 67 328 67q334 0 569 -231 q231 -236 231 -570q0 -331 -231 -565q-235 -233 -569 -233q-93 0 -174 16t-156 51z" />
<glyph unicode="&#xf7;" horiz-adv-x="1964" d="M264 614l619 500l-80 -346h1161v-307h-1161l80 -346zM932 1264h434l516 -414h-434z" />
<glyph unicode="&#xf8;" horiz-adv-x="1845" d="M264 614q0 334 232 570q235 231 569 231q178 0 328 -67l-824 -734l826 -731q-75 -34 -156 -50.5t-174 -16.5q-334 0 -569 233q-232 234 -232 565zM979 614l647 574q74 -74 129 -167t82 -194t27 -213q0 -335 -238 -573z" />
<glyph unicode="&#xf9;" horiz-adv-x="1978" d="M-88 1537v245h1229v-245h-1229zM0 -82v246l690 450l-690 451v246h717l997 -697l-997 -696h-717zM272 109h361l774 505l-774 506h-361l725 -506z" />
<glyph unicode="&#xfa;" horiz-adv-x="1978" d="M-397 2785h1847l-923 -1248zM156 2662l371 -500l370 500h-741zM0 -82v246l690 450l-690 451v246h717l997 -697l-997 -696h-717zM272 109h361l774 505l-774 506h-361l725 -506z" />
<glyph unicode="&#xfb;" horiz-adv-x="20" />
<glyph unicode="&#xfc;" horiz-adv-x="1978" d="M264 614l998 697h716v-246l-690 -451l690 -450v-246h-716zM571 614l775 -505h360l-725 505l725 506h-360z" />
<glyph unicode="&#xfd;" horiz-adv-x="2255" d="M-710 2793h1847l-923 -1248zM-157 2670l371 -500l370 500h-741zM0 0q90 102 197 189.5t235 165.5t281 145.5t307 113.5q-209 63 -401.5 158t-348.5 210.5t-270 246.5l123 194q67 -89 147 -163.5t177.5 -141.5t204 -121.5t241.5 -107.5q110 -42 231.5 -74t255 -54.5 t269 -33t268.5 -10.5h74v-205h-74q-150 0 -285 -11t-257.5 -31.5t-249 -54.5t-232.5 -75q-130 -49 -240.5 -105.5t-206.5 -122.5t-176.5 -142t-146.5 -165z" />
<glyph unicode="&#xff;" horiz-adv-x="2255" d="M502 2543v717h246l450 -691l451 691h246v-717l-697 -998zM692 2627l506 -774l506 774v360l-506 -725l-506 725v-360zM0 0q90 102 197 189.5t235 165.5t281 145.5t307 113.5q-209 63 -401.5 158t-348.5 210.5t-270 246.5l123 194q67 -89 147 -163.5t177.5 -141.5 t204 -121.5t241.5 -107.5q110 -42 231.5 -74t255 -54.5t269 -33t268.5 -10.5h74v-205h-74q-150 0 -285 -11t-257.5 -31.5t-249 -54.5t-232.5 -75q-130 -49 -240.5 -105.5t-206.5 -122.5t-176.5 -142t-146.5 -165z" />
<glyph unicode="&#x131;" horiz-adv-x="1536" d="M123 793l645 -390l645 390l-645 -1203z" />
<glyph unicode="&#x152;" horiz-adv-x="1782" d="M123 356q0 189 80 346q204 -70 358 -303q75 -111 123.5 -237.5t72 -270.5t23.5 -301q-243 34 -432 220q-225 227 -225 546zM348 899q225 223 545 223q319 0 543 -223q-224 -111 -543 -111q-320 0 -545 111zM993 -410q0 478 221 809q158 240 365 308q80 -162 80 -351 q0 -319 -223 -546q-187 -187 -443 -220z" />
<glyph unicode="&#x153;" horiz-adv-x="1802" d="M270 514q478 0 809 -221q240 -158 307 -365q-78 -38 -166 -59t-184 -21q-319 0 -547 224q-186 186 -219 442zM270 727q34 242 219 432q228 225 547 225q189 0 346 -79q-69 -202 -303 -359q-166 -111 -367.5 -165t-441.5 -54zM1468 614q0 320 111 545q223 -225 223 -545 q0 -319 -223 -542q-111 223 -111 542z" />
<glyph unicode="&#x178;" horiz-adv-x="1864" d="M1310 2656v717h246l450 -691l451 691h246v-717l-697 -998zM1500 2740l506 -774l506 774v360l-506 -725l-506 725v-360zM123 -332q89 66 165 147.5t141.5 176.5t123 208t104.5 238q172 441 172 1024v74h205v-74q0 -131 10.5 -266.5t33 -271t54.5 -256t74 -230.5 q98 -256 232 -450.5t303 -319.5l-195 -123q-127 111 -245 270t-212.5 351.5t-156.5 398.5q-63 -209 -157 -400t-210 -348t-248 -272z" />
<glyph unicode="&#x2c6;" d="M123 838h1847l-923 -1248zM500 641l448 -606v606h-448zM1145 33l448 608h-448v-608z" />
<glyph unicode="&#x2dc;" horiz-adv-x="1847" d="M123 393l113 113l688 -690l688 690l112 -113l-800 -803zM371 641v553h1106v-553l-553 -553z" />
<glyph unicode="&#x2000;" horiz-adv-x="1686" />
<glyph unicode="&#x2001;" horiz-adv-x="3373" />
<glyph unicode="&#x2002;" horiz-adv-x="1686" />
<glyph unicode="&#x2003;" horiz-adv-x="3373" />
<glyph unicode="&#x2004;" horiz-adv-x="1124" />
<glyph unicode="&#x2005;" horiz-adv-x="843" />
<glyph unicode="&#x2006;" horiz-adv-x="562" />
<glyph unicode="&#x2007;" horiz-adv-x="562" />
<glyph unicode="&#x2008;" horiz-adv-x="421" />
<glyph unicode="&#x2009;" horiz-adv-x="674" />
<glyph unicode="&#x200a;" horiz-adv-x="187" />
<glyph unicode="&#x2010;" horiz-adv-x="2128" d="M0 246v737h102v-737h-102zM328 246v737h194v-737h-194zM676 246v737h194v-737h-194zM963 246v737h215l-172 502h294l564 -871l-564 -870h-294l172 502h-215z" />
<glyph unicode="&#x2011;" horiz-adv-x="2128" d="M0 246v737h102v-737h-102zM328 246v737h194v-737h-194zM676 246v737h194v-737h-194zM963 246v737h215l-172 502h294l564 -871l-564 -870h-294l172 502h-215z" />
<glyph unicode="&#x2012;" horiz-adv-x="2128" d="M0 246v737h102v-737h-102zM328 246v737h194v-737h-194zM676 246v737h194v-737h-194zM963 246v737h215l-172 502h294l564 -871l-564 -870h-294l172 502h-215z" />
<glyph unicode="&#x2013;" horiz-adv-x="2128" d="M264 614l563 871h295l-172 -502h215v-737h-215l172 -502h-295zM1257 246v737h195v-737h-195zM1606 246v737h194v-737h-194zM2025 246v737h103v-737h-103z" />
<glyph unicode="&#x2014;" horiz-adv-x="1987" d="M123 154v295l502 -173v216h737v-216l502 173v-295l-871 -564zM625 584v194h737v-194h-737zM625 932v194h737v-194h-737zM625 1352v102h737v-102h-737z" />
<glyph unicode="&#x2018;" horiz-adv-x="1978" d="M74 -225v1679h1904v-1679h-1904zM141 614l998 -696v246l-690 450l690 451v246zM858 614l997 -696v246l-690 450l690 451v246z" />
<glyph unicode="&#x2019;" horiz-adv-x="1925" d="M123 -410v1905h1679v-1905h-1679zM266 655l697 -997l696 997h-246l-450 -690l-451 690h-246zM266 1372l697 -997l696 997h-246l-450 -690l-451 690h-246z" />
<glyph unicode="&#x201a;" horiz-adv-x="1827" d="M123 391q0 332 231 565q236 234 570 234q331 0 565 -234q233 -233 233 -565q0 -334 -233 -569q-234 -232 -565 -232q-334 0 -570 232q-231 235 -231 569zM385 238l539 -535l538 535v313l-430 -430v923h-217v-923l-430 430v-313z" />
<glyph unicode="&#x201c;" horiz-adv-x="2189" d="M285 -225v1679h1904v-1679h-1904zM408 614l716 -716h295l-223 512h870v409h-870l223 512h-295z" />
<glyph unicode="&#x201d;" horiz-adv-x="1925" d="M123 -410v1905h1679v-1905h-1679zM246 430l717 -717l716 717v295l-512 -223v870h-409v-870l-512 223v-295z" />
<glyph unicode="&#x201e;" horiz-adv-x="1952" d="M123 588h209l383 -690l164 297l-234 393h662l-234 -393l164 -297l383 690h209l-592 -998l-260 441l-262 -441z" />
<glyph unicode="&#x2022;" horiz-adv-x="2177" d="M264 614l717 717h295l-223 -512h501l224 512h399l-223 -512v-409l223 -512h-399l-224 512h-501l223 -512h-295z" />
<glyph unicode="&#x2026;" horiz-adv-x="2107" d="M264 614l615 615h204l-65 -359h1089v-512h-1089l65 -358h-204zM408 614l311 -311l-29 158h1110v307h-1110l29 158z" />
<glyph unicode="&#x202f;" horiz-adv-x="674" />
<glyph unicode="&#x2039;" horiz-adv-x="1368" d="M123 524l31 62q111 -65 243 -99q80 -20 166 -28v741h246v-741q86 8 166 28q136 35 239 99l31 -62q-91 -66 -170 -161t-147 -216q-140 -238 -213 -557h-62q-76 328 -211 557q-71 125 -150.5 219t-168.5 158z" />
<glyph unicode="&#x203a;" horiz-adv-x="1679" d="M123 307v295l348 -121v563h737v-563l348 121v-295l-716 -717z" />
<glyph unicode="&#x2044;" horiz-adv-x="1679" d="M123 307v352l594 -593v1388h246v-1388l593 593v-352l-716 -717z" />
<glyph unicode="&#x205f;" horiz-adv-x="843" />
<glyph unicode="&#x2122;" horiz-adv-x="1923" d="M264 614l717 717h295l-223 -512h870v-409h-870l223 -512h-295z" />
<glyph unicode="&#xe000;" horiz-adv-x="1475" d="M0 1475h1475v-1475h-1475v1475z" />
<glyph unicode="&#xfb01;" horiz-adv-x="3121" d="M1610 -309v1847l1247 -924zM1807 68l608 448h-608v-448zM1807 713h606l-606 448v-448zM0 -90v1409l195 -102v-1205zM360 98v1032l986 -516z" />
<glyph unicode="&#xfb02;" horiz-adv-x="3482" d="M1610 614l305 306l299 -306l-299 -305zM2050 174l441 440l-441 441l113 112l553 -553l-553 -553zM2298 -74l690 688l-690 689l113 112l803 -801l-803 -800zM0 -90v1409l195 -102v-1205zM360 98v1032l986 -516z" />
<glyph unicode="&#xfb03;" horiz-adv-x="4731" d="M3220 -309v1847l1247 -924zM3417 68l608 448h-608v-448zM3417 713h606l-606 448v-448zM1610 -90v1409l195 -102v-1205zM1970 98v1032l986 -516zM0 -90v1409l195 -102v-1205zM360 98v1032l986 -516z" />
<glyph unicode="&#xfb04;" horiz-adv-x="5092" d="M3220 614l305 306l299 -306l-299 -305zM3660 174l441 440l-441 441l113 112l553 -553l-553 -553zM3908 -74l690 688l-690 689l113 112l803 -801l-803 -800zM1610 -90v1409l195 -102v-1205zM1970 98v1032l986 -516zM0 -90v1409l195 -102v-1205zM360 98v1032l986 -516z" />
</font>
</defs>
</svg>
